<svg xmlns="http://www.w3.org/2000/svg" xmlns:xlink="http://www.w3.org/1999/xlink" width="16" height="12" viewBox="0 0 16 12"><defs><path id="k3f2a" d="M332.063 6021.414l-4.494-4.419 4.493-4.42zm-13.463.663l4.518-4.448 1.583 1.545a.474.474 0 0 0 .662-.001l1.543-1.52 4.494 4.424zm-.663-.653v-8.853l4.515 4.408zm13.473-9.5l-6.375 6.27-6.43-6.27zm.184-.924h-13.188c-.774 0-1.406.621-1.406 1.385v9.23c0 .761.629 1.385 1.406 1.385h13.188c.772 0 1.406-.62 1.406-1.385v-9.23c0-.761-.629-1.385-1.406-1.385z"/></defs><g><g transform="translate(-317 -6011)"><use xlink:href="#k3f2a"/></g></g></svg>