<svg xmlns="http://www.w3.org/2000/svg" xmlns:xlink="http://www.w3.org/1999/xlink" width="16" height="16" viewBox="0 0 16 16"><defs><path id="p88ga" d="M326.193 6057.385c-.363.06-.733.092-1.101.092-3.596 0-6.52-2.884-6.52-6.429 0-.402.037-.804.112-1.193a.554.554 0 0 0-.061-.375 3.575 3.575 0 0 1-.455-1.744c0-1.993 1.644-3.615 3.666-3.615a.565.565 0 0 0 .569-.56c0-.31-.255-.561-.569-.561-2.649 0-4.804 2.125-4.804 4.736 0 .73.173 1.454.501 2.106-.064.396-.097.8-.097 1.206 0 4.163 3.435 7.55 7.658 7.55.431 0 .866-.036 1.291-.107a.562.562 0 0 0 .466-.647.568.568 0 0 0-.656-.459z"/><path id="p88gb" d="M332.628 6052.384c.08-.44.12-.888.12-1.334 0-4.163-3.435-7.55-7.658-7.55-.397 0-.797.03-1.189.09a.562.562 0 0 0-.474.641c.048.306.34.516.65.468a6.698 6.698 0 0 1 1.013-.077c3.596 0 6.52 2.884 6.52 6.428 0 .431-.044.865-.13 1.29a.554.554 0 0 0 .041.348c.227.48.342.993.342 1.525 0 1.993-1.645 3.615-3.666 3.615a.565.565 0 0 0-.569.56c0 .31.255.561.569.561 2.649 0 4.804-2.125 4.804-4.736 0-.635-.125-1.25-.373-1.83z"/><path id="p88gc" d="M327.987 6052.325c0-.335-.066-.621-.198-.851a1.659 1.659 0 0 0-.551-.575 3.617 3.617 0 0 0-.858-.385c-.33-.104-.71-.202-1.125-.29-.33-.076-.57-.134-.715-.173a2.35 2.35 0 0 1-.427-.163 1.01 1.01 0 0 1-.333-.25.522.522 0 0 1-.12-.346c0-.217.116-.398.355-.552.235-.152.549-.23.933-.23.42 0 .716.07.906.212.187.14.35.338.483.588.106.18.199.302.287.379.11.095.272.115.388.115a.63.63 0 0 0 .468-.192.607.607 0 0 0 .187-.432c0-.174-.05-.355-.15-.539a1.74 1.74 0 0 0-.477-.527 2.591 2.591 0 0 0-.821-.403 4.07 4.07 0 0 0-1.172-.151c-.564 0-1.06.077-1.477.229-.416.151-.738.371-.958.654-.22.283-.332.611-.332.974 0 .382.106.706.314.963.208.257.494.463.85.612.356.15.803.281 1.328.392.391.08.71.158.948.231.235.072.43.178.579.316a.703.703 0 0 1 .224.538c0 .282-.136.51-.415.699-.276.185-.64.278-1.08.278-.32 0-.582-.046-.779-.138a1.218 1.218 0 0 1-.46-.352 2.631 2.631 0 0 1-.305-.532 1.069 1.069 0 0 0-.278-.403.605.605 0 0 0-.4-.136.67.67 0 0 0-.478.174.552.552 0 0 0-.188.419c0 .28.105.571.313.867.209.297.483.537.817.714.47.246 1.074.37 1.796.37.602 0 1.131-.091 1.571-.271.44-.18.779-.433 1.007-.752a1.82 1.82 0 0 0 .343-1.081z"/></defs><g><g transform="translate(-317 -6043)"><g><use xlink:href="#p88ga"/></g><g><use xlink:href="#p88gb"/></g><g><use xlink:href="#p88gc"/></g></g></g></svg>